<?xml version="1.0" encoding="UTF-8"?>
<!DOCTYPE svg PUBLIC "-//W3C//DTD SVG 1.1//EN" "http://www.w3.org/Graphics/SVG/1.1/DTD/svg11.dtd">
<svg xmlns="http://www.w3.org/2000/svg"
    xmlns:xlink="http://www.w3.org/1999/xlink"
    version="1.1" viewBox="0 0 763.5 220.5">
    <path fill-rule="evenodd" stroke="none" stroke-linecap="butt" stroke-linejoin="miter"
        fill="#000"
        d="M744.821,211.000 C733.690,221.926 720.012,227.389 703.790,227.389 C695.642,227.389 687.694,225.604 679.946,222.036 C672.198,218.468 665.815,213.660 660.795,207.613 C652.065,197.125 647.700,183.541 647.700,166.860 L647.975,102.228 L688.203,102.228 L688.513,165.330 C688.513,179.826 693.713,187.073 704.117,187.073 C708.554,187.073 712.319,185.562 715.412,182.539 C718.503,179.517 720.050,175.857 720.050,171.558 C720.050,167.116 718.594,163.382 715.685,160.359 C712.774,157.337 709.209,155.825 704.990,155.825 C702.007,155.825 698.588,157.136 694.733,159.758 L694.733,114.743 C699.534,114.306 703.171,114.088 705.645,114.088 C720.994,114.088 734.144,119.624 745.094,130.695 C756.042,141.768 761.517,155.097 761.517,170.684 C761.517,186.636 755.952,200.075 744.821,211.000 ZM585.498,174.726 C585.498,168.973 584.097,164.384 581.297,160.960 C578.496,157.537 574.731,155.825 570.003,155.825 C565.709,155.825 561.999,157.392 558.872,160.523 C555.743,163.655 554.180,167.370 554.180,171.667 C554.180,176.184 555.598,179.899 558.435,182.812 C561.273,185.726 564.874,187.182 569.239,187.182 C572.802,187.182 576.114,186.236 579.169,184.341 L579.169,226.625 C575.822,227.207 572.767,227.499 570.003,227.499 C553.634,227.499 539.993,222.109 529.081,211.328 C518.168,200.549 512.712,187.037 512.712,170.793 C512.712,154.988 518.223,141.585 529.244,130.586 C540.266,119.588 553.670,114.088 569.457,114.088 C587.062,114.088 600.940,119.242 611.088,129.548 C621.237,139.856 626.311,153.931 626.311,171.776 L626.311,225.204 L585.498,225.204 L585.498,174.726 ZM457.276,211.055 C448.255,201.623 443.745,188.531 443.745,171.776 L443.745,76.066 L488.050,76.066 L488.050,164.675 C488.050,171.596 489.158,176.201 491.378,178.496 C493.596,180.790 497.980,181.938 504.528,181.938 L506.819,181.938 L506.819,225.204 L495.034,225.204 C478.883,225.204 466.296,220.489 457.276,211.055 ZM343.131,1.496 L409.589,1.496 L409.589,225.204 L343.131,225.204 L343.131,1.496 ZM313.340,225.204 L246.883,225.204 L246.883,1.496 L313.340,1.496 L313.340,81.474 L331.837,81.474 L331.837,140.474 L313.340,140.474 L313.340,225.204 ZM98.582,226.515 C94.543,226.515 87.942,226.295 78.776,225.860 C78.776,225.860 78.785,202.575 78.779,173.578 C92.584,181.161 109.773,187.438 124.326,183.619 C142.276,175.689 143.655,168.762 145.912,127.837 C146.505,113.099 136.652,88.555 130.744,81.692 C139.881,78.295 137.710,78.871 145.037,76.727 C145.276,70.142 143.545,67.087 142.120,64.169 C134.685,63.029 131.408,64.829 121.701,65.337 C111.235,57.435 107.138,45.563 120.826,39.928 C123.182,33.747 115.322,28.795 111.492,28.246 C100.403,31.853 84.048,53.032 80.280,53.363 C70.793,48.259 82.830,39.962 70.946,36.423 C66.301,37.612 70.792,36.311 63.362,37.884 C63.721,61.220 38.900,96.739 37.401,110.313 C33.401,129.715 46.428,150.174 57.236,159.086 C59.774,161.179 63.483,163.997 67.972,166.998 C67.972,198.528 67.972,225.204 67.972,225.204 L1.515,225.204 L1.515,1.496 L88.106,1.496 C126.082,1.496 155.816,10.129 177.316,27.391 C202.851,48.041 215.619,76.066 215.619,111.466 C215.619,145.337 204.705,172.980 182.881,194.393 C161.054,215.809 132.956,226.515 98.582,226.515 Z"></path>
</svg>