<?xml version="1.0" encoding="UTF-8"?>
<!DOCTYPE svg PUBLIC "-//W3C//DTD SVG 1.1//EN" "http://www.w3.org/Graphics/SVG/1.1/DTD/svg11.dtd">
<svg xmlns="http://www.w3.org/2000/svg"
    xmlns:xlink="http://www.w3.org/1999/xlink"
    version="1.1" viewBox="0 0 603.5 78.5">
    <path fill-rule="evenodd" stroke="none" stroke-linecap="butt"
        stroke-linejoin="miter" fill="#000"
        d="M595.457,53.161 C591.431,57.098 586.483,59.066 580.615,59.066 C577.667,59.066 574.792,58.423 571.990,57.137 C569.187,55.852 566.878,54.119 565.062,51.940 C561.904,48.161 560.325,43.266 560.325,37.255 L560.325,4.539 L575.088,4.539 L575.088,36.704 C575.088,41.927 576.970,44.539 580.733,44.539 C582.338,44.539 583.700,43.994 584.819,42.905 C585.937,41.816 586.497,40.497 586.497,38.948 C586.497,37.348 585.970,36.002 584.918,34.913 C583.865,33.824 582.575,33.279 581.049,33.279 C579.970,33.279 578.733,33.751 577.339,34.696 L577.339,18.476 C579.075,18.318 580.391,18.240 581.286,18.240 C586.838,18.240 591.595,20.235 595.556,24.224 C599.517,28.214 601.497,33.017 601.497,38.633 C601.497,44.381 599.484,49.224 595.457,53.161 ZM537.824,40.090 C537.824,38.017 537.317,36.363 536.304,35.129 C535.291,33.896 533.929,33.279 532.219,33.279 C530.666,33.279 529.324,33.844 528.192,34.972 C527.061,36.101 526.495,37.439 526.495,38.988 C526.495,40.615 527.008,41.954 528.035,43.003 C529.061,44.053 530.364,44.578 531.943,44.578 C533.232,44.578 534.429,44.237 535.535,43.555 L535.535,58.791 C534.324,59.001 533.219,59.106 532.219,59.106 C526.298,59.106 521.363,57.164 517.416,53.279 C513.468,49.395 511.495,44.526 511.495,38.673 C511.495,32.978 513.488,28.148 517.475,24.184 C521.462,20.222 526.311,18.240 532.021,18.240 C538.390,18.240 543.410,20.097 547.081,23.810 C550.752,27.525 552.588,32.597 552.588,39.027 L552.588,58.279 L537.824,58.279 L537.824,40.090 ZM491.441,53.181 C488.178,49.782 486.546,45.064 486.546,39.027 L486.546,4.539 L502.573,4.539 L502.573,36.468 C502.573,38.962 502.974,40.622 503.777,41.448 C504.580,42.275 506.165,42.688 508.534,42.688 L509.363,42.688 L509.363,58.279 L505.100,58.279 C499.257,58.279 494.704,56.580 491.441,53.181 ZM448.197,56.547 C445.236,54.998 442.861,52.899 441.071,50.248 C438.808,46.862 437.677,42.373 437.677,36.783 L437.677,4.539 L452.440,4.539 L452.440,19.578 L459.072,19.578 L459.072,35.129 L452.440,35.129 C452.440,38.253 452.934,40.405 453.921,41.586 C454.907,42.767 456.716,43.358 459.348,43.358 L459.348,58.830 C458.585,58.856 458.019,58.870 457.651,58.870 C454.309,58.870 451.157,58.096 448.197,56.547 ZM432.150,33.515 C429.466,33.515 428.124,35.562 428.124,39.657 L428.124,58.279 L413.360,58.279 L413.360,36.822 C413.360,31.153 414.913,26.632 418.018,23.259 C421.123,19.887 425.268,18.200 430.453,18.200 C431.610,18.200 433.111,18.345 434.953,18.633 L434.953,34.381 C433.927,33.804 432.992,33.515 432.150,33.515 ZM389.991,40.090 C389.991,38.017 389.484,36.363 388.471,35.129 C387.458,33.896 386.096,33.279 384.386,33.279 C382.833,33.279 381.490,33.844 380.359,34.972 C379.227,36.101 378.662,37.439 378.662,38.988 C378.662,40.615 379.175,41.954 380.201,43.003 C381.228,44.053 382.530,44.578 384.109,44.578 C385.398,44.578 386.596,44.237 387.702,43.555 L387.702,58.791 C386.491,59.001 385.385,59.106 384.386,59.106 C378.464,59.106 373.530,57.164 369.583,53.279 C365.635,49.395 363.661,44.526 363.661,38.673 C363.661,32.978 365.655,28.148 369.642,24.184 C373.629,20.222 378.477,18.240 384.188,18.240 C390.557,18.240 395.577,20.097 399.248,23.810 C402.919,27.525 404.755,32.597 404.755,39.027 L404.755,58.279 L389.991,58.279 L389.991,40.090 ZM337.332,41.035 C336.989,39.907 336.818,38.870 336.818,37.925 C336.818,36.613 337.055,35.326 337.529,34.066 L345.029,34.066 C344.503,31.153 342.858,29.696 340.095,29.696 C338.253,29.696 336.753,30.478 335.595,32.039 C334.436,33.601 333.858,35.602 333.858,38.043 C333.858,40.589 334.417,42.649 335.536,44.224 C336.654,45.799 338.121,46.586 339.937,46.586 C341.411,46.586 342.832,45.852 344.200,44.381 L352.608,54.460 C348.687,57.531 344.332,59.066 339.542,59.066 C333.700,59.066 328.792,57.111 324.818,53.200 C320.844,49.290 318.857,44.447 318.857,38.673 C318.857,32.925 320.864,28.069 324.877,24.106 C328.890,20.143 333.818,18.161 339.661,18.161 C345.371,18.161 350.167,20.097 354.049,23.968 C357.931,27.840 359.872,32.610 359.872,38.279 C359.872,38.857 359.819,39.775 359.714,41.035 L337.332,41.035 ZM295.330,4.539 L311.357,4.539 L311.357,58.279 L295.330,58.279 L295.330,4.539 ZM288.146,58.279 L272.119,58.279 L272.119,4.539 L288.146,4.539 L288.146,23.751 L292.607,23.751 L292.607,37.925 L288.146,37.925 L288.146,58.279 ZM227.394,4.539 L242.158,4.539 L242.158,58.279 L227.394,58.279 L227.394,4.539 ZM204.025,40.090 C204.025,38.017 203.518,36.363 202.505,35.129 C201.492,33.896 200.130,33.279 198.420,33.279 C196.867,33.279 195.525,33.844 194.393,34.972 C193.262,36.101 192.696,37.439 192.696,38.988 C192.696,40.615 193.209,41.954 194.235,43.003 C195.262,44.053 196.564,44.578 198.143,44.578 C199.433,44.578 200.630,44.237 201.736,43.555 L201.736,58.791 C200.525,59.001 199.420,59.106 198.420,59.106 C192.499,59.106 187.564,57.164 183.617,53.279 C179.669,49.395 177.695,44.526 177.695,38.673 C177.695,32.978 179.689,28.148 183.676,24.184 C187.663,20.222 192.512,18.240 198.222,18.240 C204.591,18.240 209.611,20.097 213.282,23.810 C216.953,27.525 218.789,32.597 218.789,39.027 L218.789,58.279 L204.025,58.279 L204.025,40.090 ZM161.728,56.547 C158.767,54.998 156.392,52.899 154.603,50.248 C152.339,46.862 151.208,42.373 151.208,36.783 L151.208,4.539 L165.971,4.539 L165.971,19.578 L172.603,19.578 L172.603,35.129 L165.971,35.129 C165.971,38.253 166.465,40.405 167.452,41.586 C168.439,42.767 170.248,43.358 172.880,43.358 L172.880,58.830 C172.116,58.856 171.550,58.870 171.182,58.870 C167.840,58.870 164.689,58.096 161.728,56.547 ZM136.800,15.602 C134.641,15.602 132.872,14.946 131.490,13.633 C130.109,12.321 129.418,10.641 129.418,8.594 C129.418,6.678 130.148,5.018 131.609,3.614 C133.069,2.210 134.799,1.507 136.800,1.507 C138.799,1.507 140.530,2.210 141.991,3.614 C143.451,5.018 144.181,6.678 144.181,8.594 C144.181,10.641 143.491,12.321 142.109,13.633 C140.727,14.946 138.957,15.602 136.800,15.602 ZM144.142,58.279 L129.378,58.279 L129.378,19.027 L144.142,19.027 L144.142,58.279 ZM99.141,76.507 C97.193,76.507 94.732,76.021 91.759,75.051 L91.759,61.665 C93.680,62.714 95.627,63.240 97.601,63.240 C100.259,63.240 102.312,62.367 103.759,60.622 C105.206,58.876 105.930,56.376 105.930,53.122 L105.930,38.358 C105.930,34.237 104.259,32.177 100.917,32.177 C99.496,32.177 98.252,32.722 97.187,33.810 C96.121,34.900 95.588,36.153 95.588,37.570 C95.588,39.066 96.094,40.313 97.108,41.310 C98.120,42.308 99.377,42.807 100.877,42.807 C101.877,42.807 102.838,42.570 103.759,42.098 L103.759,55.602 C101.628,56.389 99.588,56.783 97.641,56.783 C92.877,56.783 88.844,54.985 85.542,51.389 C82.239,47.794 80.587,43.397 80.587,38.200 C80.587,32.584 82.574,27.846 86.548,23.988 C90.522,20.129 95.403,18.200 101.193,18.200 C104.272,18.200 107.219,18.817 110.036,20.051 C112.851,21.285 115.062,22.938 116.667,25.011 C119.352,28.450 120.694,33.436 120.694,39.972 L120.694,52.885 C120.694,59.893 118.700,65.582 114.713,69.952 C110.726,74.322 105.536,76.507 99.141,76.507 ZM66.732,15.602 C64.574,15.602 62.804,14.946 61.422,13.633 C60.041,12.321 59.350,10.641 59.350,8.594 C59.350,6.678 60.080,5.018 61.541,3.614 C63.001,2.210 64.732,1.507 66.732,1.507 C68.731,1.507 70.462,2.210 71.923,3.614 C73.383,5.018 74.114,6.678 74.114,8.594 C74.114,10.641 73.423,12.321 72.041,13.633 C70.660,14.946 68.889,15.602 66.732,15.602 ZM74.074,58.279 L59.311,58.279 L59.311,19.027 L74.074,19.027 L74.074,58.279 ZM24.374,58.009 C23.422,58.009 21.866,57.957 19.705,57.855 C19.705,57.855 19.707,52.381 19.706,45.564 C22.960,47.347 27.011,48.822 30.442,47.925 C34.673,46.061 34.998,44.432 35.530,34.811 C35.669,31.347 33.347,25.577 31.954,23.964 C34.108,23.165 33.596,23.301 35.323,22.797 C35.380,21.249 34.972,20.530 34.636,19.844 C32.883,19.577 32.111,19.1000 29.823,20.119 C27.356,18.261 26.390,15.471 29.617,14.146 C30.172,12.693 28.319,11.529 27.417,11.400 C24.803,12.248 20.948,17.226 20.060,17.304 C17.824,16.104 20.661,14.154 17.860,13.322 C16.765,13.601 17.823,13.296 16.072,13.665 C16.157,19.151 10.306,27.501 9.953,30.692 C9.010,35.253 12.081,40.062 14.628,42.158 C15.226,42.650 16.101,43.312 17.159,44.018 C17.159,51.430 17.159,57.701 17.159,57.701 L1.495,57.701 L1.495,5.111 L21.904,5.111 C30.855,5.111 37.864,7.141 42.932,11.199 C48.950,16.053 51.960,22.641 51.960,30.963 C51.960,38.925 49.387,45.424 44.243,50.458 C39.099,55.492 32.476,58.009 24.374,58.009 Z"></path>
</svg>